<?xml version="1.0" encoding="UTF-8"?>
<!DOCTYPE svg PUBLIC "-//W3C//DTD SVG 1.1//EN" "http://www.w3.org/Graphics/SVG/1.1/DTD/svg11.dtd">
<svg xmlns="http://www.w3.org/2000/svg" version="1.1" width="500px" height="500px" style="shape-rendering:geometricPrecision; text-rendering:geometricPrecision; image-rendering:optimizeQuality; fill-rule:evenodd; clip-rule:evenodd" xmlns:xlink="http://www.w3.org/1999/xlink">

<!-- 背景 -->
<g><path style="opacity:1" fill="#ffffff" d="M 0 0 H 500 V 500 H 0 Z"/></g>

<!-- 顔〜首の輪郭 -->
<g><path style="opacity:1" fill="#000000" d="M 247.5,67.5 C 247.5,68.5 247.5,69.5 247.5,70.5C 197.699,69.4917 164.865,92.4917 149,139.5C 142.742,163.269 143.075,186.936 150,210.5C 153.081,218.338 157.414,225.338 163,231.5C 163.667,228.5 163.667,225.5 163,222.5C 157.641,215.099 155.141,206.932 155.5,198C 156.784,197.316 157.951,197.483 159,198.5C 160.302,206.056 162.968,213.056 167,219.5C 167.333,215.833 167.667,212.167 168,208.5C 173.501,202.5 177.168,195.5 179,187.5C 179.874,178.426 181.207,169.426 183,160.5C 184.572,156.359 186.905,152.692 190,149.5C 190.499,145.179 190.666,140.846 190.5,136.5C 192.144,136.286 193.644,136.62 195,137.5C 194.174,152.704 197.174,167.037 204,180.5C 206.167,182.667 208.333,184.833 210.5,187C 213.315,188.721 216.315,189.388 219.5,189C 209.73,177.687 205.563,164.52 207,149.5C 208.333,148.167 209.667,148.167 211,149.5C 211.426,159.967 213.759,169.967 218,179.5C 221.627,185.131 226.46,189.298 232.5,192C 233.833,192.667 235.167,192.667 236.5,192C 227.999,180.659 223.999,167.826 224.5,153.5C 226.167,153.5 227.833,153.5 229.5,153.5C 229.219,164.031 231.385,174.031 236,183.5C 239.956,190.128 245.622,194.462 253,196.5C 251.686,192.858 250.019,189.191 248,185.5C 244.493,174.369 243.66,163.036 245.5,151.5C 247.144,151.286 248.644,151.62 250,152.5C 250.385,169.015 256.551,182.848 268.5,194C 273.058,197.189 278.058,198.522 283.5,198C 273.684,186.554 269.017,173.221 269.5,158C 269.519,154.582 269.853,151.249 270.5,148C 271.784,147.316 272.951,147.483 274,148.5C 276.021,164.536 282.354,178.536 293,190.5C 296.412,193.123 299.912,195.623 303.5,198C 305.044,199.187 306.711,199.52 308.5,199C 302.994,193.482 299.494,186.982 298,179.5C 299.049,178.483 300.216,178.316 301.5,179C 306.524,191.19 314.858,200.357 326.5,206.5C 327.663,200.863 327.83,195.196 327,189.5C 325.56,181.469 324.06,173.469 322.5,165.5C 324.144,165.286 325.644,165.62 327,166.5C 331.769,184.499 333.769,202.832 333,221.5C 338.905,217.032 342.238,211.032 343,203.5C 343.333,196.833 343.667,190.167 344,183.5C 345.333,182.167 346.667,182.167 348,183.5C 350.362,197.105 348.029,209.771 341,221.5C 339.622,223.213 337.955,224.547 336,225.5C 335.333,227.5 335.333,229.5 336,231.5C 344.366,222.436 349.699,211.769 352,199.5C 358.725,165.124 352.391,133.457 333,104.5C 311.524,80.0495 284.357,68.7161 251.5,70.5C 251.5,69.5 251.5,68.5 251.5,67.5C 285.097,63.9871 313.264,74.9871 336,100.5C 359.646,134.407 365.479,171.241 353.5,211C 360.408,218.118 362.908,226.618 361,236.5C 357.265,253.735 346.765,264.068 329.5,267.5C 326.586,284.26 318.42,297.926 305,308.5C 304.333,321.167 304.333,333.833 305,346.5C 305.608,348.154 306.108,349.821 306.5,351.5C 306.316,353.925 305.649,353.925 304.5,351.5C 304.167,352.667 303.833,353.833 303.5,355C 304.395,357.82 305.229,360.654 306,363.5C 308.508,364.036 310.341,365.369 311.5,367.5C 309.327,373.33 305.993,378.496 301.5,383C 292.682,390.073 283.015,395.573 272.5,399.5C 242.633,407.36 216.466,400.693 194,379.5C 191.128,375.817 188.962,371.817 187.5,367.5C 187.296,364.482 186.963,361.482 186.5,358.5C 189.388,358.22 190.888,359.553 191,362.5C 192.227,358.409 191.394,354.909 188.5,352C 186.098,353.046 183.432,353.546 180.5,353.5C 183.65,349.171 187.484,348.504 192,351.5C 192.862,349.913 193.529,348.246 194,346.5C 194.667,333.833 194.667,321.167 194,308.5C 180.58,297.926 172.414,284.26 169.5,267.5C 152.235,264.068 141.735,253.735 138,236.5C 136.092,226.618 138.592,218.118 145.5,211C 135.916,179.336 138.083,148.503 152,118.5C 173.048,80.7326 204.881,63.7326 247.5,67.5 Z"/></g>

<!-- 髪 -->
<g><path style="opacity:1" fill="#778899" d="M 247.5,67.5 C 248.833,68.8333 250.167,68.8333 251.5,67.5C 251.5,68.5 251.5,69.5 251.5,70.5C 284.357,68.7161 311.524,80.0495 333,104.5C 352.391,133.457 358.725,165.124 352,199.5C 349.699,211.769 344.366,222.436 336,231.5C 335.333,229.5 335.333,227.5 336,225.5C 337.955,224.547 339.622,223.213 341,221.5C 348.029,209.771 350.362,197.105 348,183.5C 346.667,182.167 345.333,182.167 344,183.5C 343.667,190.167 343.333,196.833 343,203.5C 342.238,211.032 338.905,217.032 333,221.5C 333.769,202.832 331.769,184.499 327,166.5C 325.644,165.62 324.144,165.286 322.5,165.5C 324.06,173.469 325.56,181.469 327,189.5C 327.83,195.196 327.663,200.863 326.5,206.5C 314.858,200.357 306.524,191.19 301.5,179C 300.216,178.316 299.049,178.483 298,179.5C 299.494,186.982 302.994,193.482 308.5,199C 306.711,199.52 305.044,199.187 303.5,198C 299.912,195.623 296.412,193.123 293,190.5C 282.354,178.536 276.021,164.536 274,148.5C 272.951,147.483 271.784,147.316 270.5,148C 269.853,151.249 269.519,154.582 269.5,158C 269.017,173.221 273.684,186.554 283.5,198C 278.058,198.522 273.058,197.189 268.5,194C 256.551,182.848 250.385,169.015 250,152.5C 248.644,151.62 247.144,151.286 245.5,151.5C 243.66,163.036 244.493,174.369 248,185.5C 250.019,189.191 251.686,192.858 253,196.5C 245.622,194.462 239.956,190.128 236,183.5C 231.385,174.031 229.219,164.031 229.5,153.5C 227.833,153.5 226.167,153.5 224.5,153.5C 223.999,167.826 227.999,180.659 236.5,192C 235.167,192.667 233.833,192.667 232.5,192C 226.46,189.298 221.627,185.131 218,179.5C 213.759,169.967 211.426,159.967 211,149.5C 209.667,148.167 208.333,148.167 207,149.5C 205.563,164.52 209.73,177.687 219.5,189C 216.315,189.388 213.315,188.721 210.5,187C 208.333,184.833 206.167,182.667 204,180.5C 197.174,167.037 194.174,152.704 195,137.5C 193.644,136.62 192.144,136.286 190.5,136.5C 190.666,140.846 190.499,145.179 190,149.5C 186.905,152.692 184.572,156.359 183,160.5C 181.207,169.426 179.874,178.426 179,187.5C 177.168,195.5 173.501,202.5 168,208.5C 167.667,212.167 167.333,215.833 167,219.5C 162.968,213.056 160.302,206.056 159,198.5C 157.951,197.483 156.784,197.316 155.5,198C 155.141,206.932 157.641,215.099 163,222.5C 163.667,225.5 163.667,228.5 163,231.5C 157.414,225.338 153.081,218.338 150,210.5C 143.075,186.936 142.742,163.269 149,139.5C 164.865,92.4917 197.699,69.4917 247.5,70.5C 247.5,69.5 247.5,68.5 247.5,67.5 Z"/></g>

<!-- 眉毛 -->
<g><path style="opacity:1" fill="#778899" d="M 199.5,188.5 C 203.331,188.249 206.664,189.416 209.5,192C 204.833,192.667 200.167,192.667 195.5,192C 196.731,190.595 198.064,189.429 199.5,188.5 Z"/></g>

<!-- 額 -->
<g><path style="opacity:1" fill="#fbf4ef" d="M 273.5,201.5 C 267.344,202.539 261.344,204.206 255.5,206.5C 250.821,206.666 246.155,206.499 241.5,206C 223.822,201.073 205.822,199.073 187.5,200C 184.249,200.72 181.249,201.887 178.5,203.5C 183.308,190.963 186.141,177.963 187,164.5C 187.689,161.592 188.855,158.925 190.5,156.5C 192.35,166.219 195.684,175.386 200.5,184C 195.481,186.015 191.315,189.182 188,193.5C 187.301,195.074 187.635,196.407 189,197.5C 198.422,196.349 207.922,196.182 217.5,197C 232.343,197.569 247.01,198.903 261.5,201C 262.517,199.951 262.684,198.784 262,197.5C 257.163,193.476 254.163,188.476 253,182.5C 257.463,191.466 264.297,197.799 273.5,201.5 Z"/></g>
<g><path style="opacity:1" fill="#fbf4ef" d="M 278.5,179.5 C 280.166,181.187 281.5,183.187 282.5,185.5C 282.167,185.833 281.833,186.167 281.5,186.5C 279.673,184.513 278.673,182.179 278.5,179.5 Z"/></g>
<g><path style="opacity:1" fill="#fbf4ef" d="M 297.5,200.5 C 295.5,200.5 293.5,200.5 291.5,200.5C 290.71,199.206 289.71,198.039 288.5,197C 292.361,196.043 295.361,197.21 297.5,200.5 Z"/></g>

<!-- 眼鏡 -->
<g><path style="opacity:1" fill="#0301c9" d="M 255.5,206.5 C 255.5,206.833 255.5,207.167 255.5,207.5C 250.821,207.334 246.155,207.501 241.5,208C 240.027,208.71 239.36,209.876 239.5,211.5C 236.569,209.203 233.236,207.703 229.5,207C 219.368,205.439 209.201,204.273 199,203.5C 194.415,203.431 189.915,203.931 185.5,205C 182.613,206.709 181.279,209.209 181.5,212.5C 181.902,225.195 188.236,232.695 200.5,235C 209.167,235.667 217.833,235.667 226.5,235C 228.624,233.878 230.457,232.378 232,230.5C 234.527,226.104 237.027,221.771 239.5,217.5C 239.369,218.239 239.536,218.906 240,219.5C 240.49,218.207 240.657,216.873 240.5,215.5C 242.5,215.5 244.5,215.5 246.5,215.5C 241.609,221.173 237.609,227.507 234.5,234.5C 231.455,237.516 227.788,239.182 223.5,239.5C 223.5,238.5 223.5,237.5 223.5,236.5C 216.825,236.334 210.158,236.5 203.5,237C 205.502,238.019 207.502,238.852 209.5,239.5C 191.145,241.465 180.145,233.465 176.5,215.5C 175.14,214.82 173.807,214.153 172.5,213.5C 173.963,209.919 175.963,206.585 178.5,203.5C 181.249,201.887 184.249,200.72 187.5,200C 205.822,199.073 223.822,201.073 241.5,206C 246.155,206.499 250.821,206.666 255.5,206.5 Z"/></g>
<g><path style="opacity:1" fill="#0301c9" d="M 255.5,207.5 C 257.199,207.34 258.866,207.506 260.5,208C 259.552,208.483 258.552,208.649 257.5,208.5C 257.813,211.247 257.48,213.914 256.5,216.5C 253.584,214.34 250.584,214.007 247.5,215.5C 247.167,215.5 246.833,215.5 246.5,215.5C 244.5,215.5 242.5,215.5 240.5,215.5C 240.657,216.873 240.49,218.207 240,219.5C 239.536,218.906 239.369,218.239 239.5,217.5C 239.5,215.5 239.5,213.5 239.5,211.5C 239.36,209.876 240.027,208.71 241.5,208C 246.155,207.501 250.821,207.334 255.5,207.5 Z"/></g>
<g><path style="opacity:1" fill="#0301c9" d="M 269.5,206.5 C 266.579,207.065 263.912,208.232 261.5,210C 260.056,211.126 259.39,212.626 259.5,214.5C 264.165,234.597 276.498,241.43 296.5,235C 299.909,233.26 303.576,232.26 307.5,232C 311.486,229.537 314.153,226.037 315.5,221.5C 315.5,221.167 315.5,220.833 315.5,220.5C 317,216.674 317.666,212.674 317.5,208.5C 317.5,208.167 317.5,207.833 317.5,207.5C 318.167,207.5 318.833,207.5 319.5,207.5C 319.369,208.376 319.702,209.043 320.5,209.5C 322.059,210.074 323.559,210.74 325,211.5C 325.464,212.094 325.631,212.761 325.5,213.5C 324.739,214.391 323.739,215.058 322.5,215.5C 319.861,230.816 310.861,238.483 295.5,238.5C 291.893,237.176 287.893,236.509 283.5,236.5C 279.5,236.667 275.5,236.833 271.5,237C 272.167,237.333 272.833,237.667 273.5,238C 273.272,238.399 272.938,238.565 272.5,238.5C 270.692,238.509 269.025,238.009 267.5,237C 262.42,230.845 258.086,224.178 254.5,217C 252.323,215.798 249.989,215.298 247.5,215.5C 250.584,214.007 253.584,214.34 256.5,216.5C 257.48,213.914 257.813,211.247 257.5,208.5C 258.552,208.649 259.552,208.483 260.5,208C 258.866,207.506 257.199,207.34 255.5,207.5C 255.5,207.167 255.5,206.833 255.5,206.5C 259.318,206.586 262.984,205.919 266.5,204.5C 268.03,204.64 269.03,205.307 269.5,206.5 Z"/></g>
<g><path style="opacity:1" fill="#0301c9" d="M 273.5,201.5 C 277.112,200.924 280.112,201.924 282.5,204.5C 278.343,205.449 274.01,206.116 269.5,206.5C 269.03,205.307 268.03,204.64 266.5,204.5C 262.984,205.919 259.318,206.586 255.5,206.5C 261.344,204.206 267.344,202.539 273.5,201.5 Z"/></g>
<g><path style="opacity:1" fill="#0301c9" d="M 291.5,200.5 C 293.5,200.5 295.5,200.5 297.5,200.5C 300.216,200.386 302.216,201.386 303.5,203.5C 299.5,203.5 295.5,203.5 291.5,203.5C 291.5,202.5 291.5,201.5 291.5,200.5 Z"/></g>
<g><path style="opacity:1" fill="#0301c9" d="M 317.5,207.5 C 317.5,207.833 317.5,208.167 317.5,208.5C 315.063,206.017 312.063,204.683 308.5,204.5C 308.5,203.167 308.5,201.833 308.5,200.5C 310.97,202.087 313.636,203.587 316.5,205C 317.252,205.671 317.586,206.504 317.5,207.5 Z"/></g>
<g><path style="opacity:1" fill="#0301c9" d="M 319.5,207.5 C 323.693,207.362 326.027,209.362 326.5,213.5C 326.167,213.5 325.833,213.5 325.5,213.5C 325.631,212.761 325.464,212.094 325,211.5C 323.559,210.74 322.059,210.074 320.5,209.5C 319.702,209.043 319.369,208.376 319.5,207.5 Z"/></g>
<g><path style="opacity:1" fill="#0301c9" d="M 223.5,239.5 C 218.833,239.5 214.167,239.5 209.5,239.5C 207.502,238.852 205.502,238.019 203.5,237C 210.158,236.5 216.825,236.334 223.5,236.5C 223.5,237.5 223.5,238.5 223.5,239.5 Z"/></g>
<g><path style="opacity:1" fill="#0301c9" d="M 295.5,238.5 C 287.705,239.782 280.038,239.782 272.5,238.5C 272.938,238.565 273.272,238.399 273.5,238C 272.833,237.667 272.167,237.333 271.5,237C 275.5,236.833 279.5,236.667 283.5,236.5C 287.893,236.509 291.893,237.176 295.5,238.5 Z"/></g>

<!-- 目 -->
<g><path style="opacity:1" fill="#fbf4ef" d="M 239.5,211.5 C 239.5,213.5 239.5,215.5 239.5,217.5C 237.027,221.771 234.527,226.104 232,230.5C 230.457,232.378 228.624,233.878 226.5,235C 217.833,235.667 209.167,235.667 200.5,235C 188.236,232.695 181.902,225.195 181.5,212.5C 181.279,209.209 182.613,206.709 185.5,205C 189.915,203.931 194.415,203.431 199,203.5C 209.201,204.273 219.368,205.439 229.5,207C 233.236,207.703 236.569,209.203 239.5,211.5 Z"/></g>
<g><path style="opacity:1" fill="#000000" d="M 201.5,207.5 C 208.391,206.901 215.058,207.735 221.5,210C 222.833,211 222.833,212 221.5,213C 214.629,211.61 207.629,211.277 200.5,212C 197.244,213.474 193.911,214.64 190.5,215.5C 190.238,214.022 190.571,212.689 191.5,211.5C 194.722,209.545 198.056,208.212 201.5,207.5 Z"/></g>
<g><path style="opacity:1" fill="#000000" d="M 204.5,212.5 C 215.116,211.925 218.45,216.425 214.5,226C 204.961,229.504 200.461,226.337 201,216.5C 202.376,215.295 203.542,213.962 204.5,212.5 Z"/></g>
<g><path style="opacity:1" fill="#fbf4ef" d="M 315.5,220.5 C 315.5,220.833 315.5,221.167 315.5,221.5C 311.045,221.915 308.712,224.415 308.5,229C 301.971,229.768 295.638,231.102 289.5,233C 284.167,233.667 278.833,233.667 273.5,233C 271.893,231.951 271.227,230.451 271.5,228.5C 266.08,228.513 265.413,227.013 269.5,224C 265.861,221.698 263.194,219.031 261.5,216C 262.893,214.829 263.727,213.329 264,211.5C 269.161,207.843 274.994,206.51 281.5,207.5C 279.681,208.584 278.015,209.918 276.5,211.5C 278.176,213.921 280.176,214.088 282.5,212C 287.833,211.333 293.167,211.333 298.5,212C 301.605,213.868 304.938,215.035 308.5,215.5C 308.762,214.022 308.429,212.689 307.5,211.5C 304.135,209.941 300.802,208.608 297.5,207.5C 302.794,207.318 302.794,206.818 297.5,206C 302.868,205.522 308.201,205.855 313.5,207C 314.184,208.693 315.184,210.193 316.5,211.5C 314.724,214.857 314.39,217.857 315.5,220.5 Z"/></g>
<g><path style="opacity:1" fill="#fbf4ef" d="M 291.5,203.5 C 295.5,203.5 299.5,203.5 303.5,203.5C 305.042,204.301 306.708,204.634 308.5,204.5C 312.063,204.683 315.063,206.017 317.5,208.5C 317.666,212.674 317,216.674 315.5,220.5C 314.39,217.857 314.724,214.857 316.5,211.5C 315.184,210.193 314.184,208.693 313.5,207C 308.201,205.855 302.868,205.522 297.5,206C 302.794,206.818 302.794,207.318 297.5,207.5C 292.167,206.167 286.833,206.167 281.5,207.5C 274.994,206.51 269.161,207.843 264,211.5C 263.727,213.329 262.893,214.829 261.5,216C 263.194,219.031 265.861,221.698 269.5,224C 265.413,227.013 266.08,228.513 271.5,228.5C 271.227,230.451 271.893,231.951 273.5,233C 278.833,233.667 284.167,233.667 289.5,233C 295.638,231.102 301.971,229.768 308.5,229C 308.712,224.415 311.045,221.915 315.5,221.5C 314.153,226.037 311.486,229.537 307.5,232C 303.576,232.26 299.909,233.26 296.5,235C 276.498,241.43 264.165,234.597 259.5,214.5C 259.39,212.626 260.056,211.126 261.5,210C 263.912,208.232 266.579,207.065 269.5,206.5C 274.01,206.116 278.343,205.449 282.5,204.5C 285.518,204.296 288.518,203.963 291.5,203.5 Z"/></g>
<g><path style="opacity:1" fill="#000000" d="M 297.5,207.5 C 300.802,208.608 304.135,209.941 307.5,211.5C 308.429,212.689 308.762,214.022 308.5,215.5C 304.938,215.035 301.605,213.868 298.5,212C 293.167,211.333 287.833,211.333 282.5,212C 280.176,214.088 278.176,213.921 276.5,211.5C 278.015,209.918 279.681,208.584 281.5,207.5C 286.833,206.167 292.167,206.167 297.5,207.5 Z"/></g>
<g><path style="opacity:1" fill="#000000" d="M 286.5,212.5 C 295.211,211.38 299.044,215.047 298,223.5C 293.867,227.9 289.2,228.567 284,225.5C 281.458,220.438 282.292,216.105 286.5,212.5 Z"/></g>

<!-- 耳 -->
<g><path style="opacity:1" fill="#fbf4ef" d="M 146.5,218.5 C 148.701,218.858 150.035,220.192 150.5,222.5C 147.052,227.992 148.385,230.159 154.5,229C 155.022,229.561 155.355,230.228 155.5,231C 151.096,242.294 154.929,249.127 167,251.5C 167.696,254.478 168.196,257.478 168.5,260.5C 159.259,258.796 152.426,253.796 148,245.5C 142.948,236.602 142.448,227.602 146.5,218.5 Z"/></g>
<g><path style="opacity:1" fill="#fbf4ef" d="M 158.5,235.5 C 164.216,236.916 166.382,240.583 165,246.5C 162.372,244.874 160.039,242.874 158,240.5C 157.36,238.735 157.527,237.068 158.5,235.5 Z"/></g>
<g><path style="opacity:1" fill="#fbf4ef" d="M 338.5,235.5 C 341.244,236.072 342.077,237.738 341,240.5C 334.282,248.725 332.282,248.059 335,238.5C 336.518,237.837 337.685,236.837 338.5,235.5 Z"/></g>
<g><path style="opacity:1" fill="#fbf4ef" d="M 350.5,218.5 C 354.539,220.921 356.206,224.587 355.5,229.5C 354.859,239.595 350.859,248.095 343.5,255C 339.626,257.937 335.293,259.771 330.5,260.5C 330.804,257.478 331.304,254.478 332,251.5C 344.071,249.127 347.904,242.294 343.5,231C 344.587,227.206 346.42,226.706 349,229.5C 350.983,227.07 350.817,224.737 348.5,222.5C 349.18,221.14 349.847,219.807 350.5,218.5 Z"/></g>

<!-- 顔・鼻・口 -->
<g><path style="opacity:1" fill="#fbf4ef" d="M 172.5,213.5 C 173.807,214.153 175.14,214.82 176.5,215.5C 180.145,233.465 191.145,241.465 209.5,239.5C 214.167,239.5 218.833,239.5 223.5,239.5C 227.788,239.182 231.455,237.516 234.5,234.5C 237.609,227.507 241.609,221.173 246.5,215.5C 246.833,215.5 247.167,215.5 247.5,215.5C 249.989,215.298 252.323,215.798 254.5,217C 258.086,224.178 262.42,230.845 267.5,237C 269.025,238.009 270.692,238.509 272.5,238.5C 280.038,239.782 287.705,239.782 295.5,238.5C 310.861,238.483 319.861,230.816 322.5,215.5C 323.739,215.058 324.739,214.391 325.5,213.5C 325.833,213.5 326.167,213.5 326.5,213.5C 327.768,217.522 327.768,221.689 326.5,226C 327.032,228.02 328.365,228.853 330.5,228.5C 328.089,245.054 324.589,261.388 320,277.5C 318.721,282.725 316.388,287.391 313,291.5C 298.16,308.331 280.327,320.831 259.5,329C 251.731,331.123 244.065,330.79 236.5,328C 214.25,319.085 196.083,304.918 182,285.5C 175.399,266.662 170.899,247.328 168.5,227.5C 169.833,227.5 171.167,227.5 172.5,227.5C 172.5,222.833 172.5,218.167 172.5,213.5 Z"/></g>
<g><path style="opacity:1" fill="#000000" d="M 239.5,262.5 C 242.084,262.569 244.084,263.735 245.5,266C 241.78,267.392 239.78,266.225 239.5,262.5 Z"/></g>
<g><path style="opacity:1" fill="#000000" d="M 256.5,262.5 C 257.5,262.5 258.5,262.5 259.5,262.5C 258.955,265.944 256.955,267.111 253.5,266C 254.71,264.961 255.71,263.794 256.5,262.5 Z"/></g>
<g><path style="opacity:1" fill="#000000" d="M 218.5,280.5 C 220.958,280.227 222.625,281.227 223.5,283.5C 240.833,284.833 258.167,284.833 275.5,283.5C 277.673,279.557 279.673,279.557 281.5,283.5C 281.471,285.029 280.804,286.196 279.5,287C 275.886,287.945 272.219,288.612 268.5,289C 255.167,289.667 241.833,289.667 228.5,289C 225.424,288.654 222.424,287.988 219.5,287C 217.316,285.102 216.983,282.936 218.5,280.5 Z"/></g>

<!-- 首 -->
<g><path style="opacity:1" fill="#fbf4ef" d="M 201.5,314.5 C 212.691,323.5 225.024,330.666 238.5,336C 253.353,338.363 267.02,335.363 279.5,327C 285.597,323.201 291.431,319.035 297,314.5C 295.586,333.91 298.252,352.577 305,370.5C 288.075,391.038 266.242,400.205 239.5,398C 220.451,394.318 205.118,384.818 193.5,369.5C 197.393,361.595 199.893,353.262 201,344.5C 201.5,334.506 201.666,324.506 201.5,314.5 Z"/></g>

<!-- シャツ -->
<g><path style="opacity:1" fill="#000000" d="M 187.5,367.5 C 185.157,364.659 184.49,361.493 185.5,358C 187.002,357.417 188.335,356.584 189.5,355.5C 188.833,355.167 188.167,354.833 187.5,354.5C 184.05,356.774 180.717,359.274 177.5,362C 175.975,363.009 174.308,363.509 172.5,363.5C 172.919,366.325 171.919,368.491 169.5,370C 138.017,385.574 106.351,400.907 74.5,416C 65.6204,421.879 58.4537,429.379 53,438.5C 43.5232,457.715 38.6899,478.048 38.5,499.5C 36.1667,499.5 33.8333,499.5 31.5,499.5C 32.9099,490.555 34.0766,481.555 35,472.5C 37.599,445.095 50.4324,424.261 73.5,410C 100.379,397.06 127.379,384.393 154.5,372C 157.339,370.08 160.339,368.413 163.5,367C 165.871,365.594 167.538,363.594 168.5,361C 172.917,359.067 176.917,356.567 180.5,353.5C 183.432,353.546 186.098,353.046 188.5,352C 191.394,354.909 192.227,358.409 191,362.5C 190.888,359.553 189.388,358.22 186.5,358.5C 186.963,361.482 187.296,364.482 187.5,367.5 Z"/></g>
<g><path style="opacity:1" fill="#000000" d="M 227.5,415.5 C 262.332,423.167 291.499,413.501 315,386.5C 318.34,381.825 321.173,376.825 323.5,371.5C 324.325,370.614 325.325,370.281 326.5,370.5C 325.97,375.09 324.636,379.424 322.5,383.5C 294.906,419.196 259.572,430.029 216.5,416C 196.188,407.354 181.522,393.021 172.5,373C 172.63,371.941 173.13,371.108 174,370.5C 185.584,392.916 203.417,407.916 227.5,415.5 Z"/></g>
<g><path style="opacity:1" fill="#000000" d="M 467.5,499.5 C 465.167,499.5 462.833,499.5 460.5,499.5C 460.465,484.087 457.965,469.087 453,454.5C 447.504,437.649 437.337,424.483 422.5,415C 393.312,401.444 364.312,387.61 335.5,373.5C 330.723,371.891 327.39,368.724 325.5,364C 321.142,361.487 317.142,358.487 313.5,355C 308.368,355.137 308.368,356.137 313.5,358C 314.51,361.493 313.843,364.659 311.5,367.5C 310.341,365.369 308.508,364.036 306,363.5C 305.229,360.654 304.395,357.82 303.5,355C 303.833,353.833 304.167,352.667 304.5,351.5C 305.649,353.925 306.316,353.925 306.5,351.5C 310.152,348.913 313.819,349.08 317.5,352C 321.282,355.78 325.616,358.78 330.5,361C 331.167,362.333 331.833,363.667 332.5,365C 363.292,380.378 394.292,395.378 425.5,410C 440.655,419.118 451.488,431.951 458,448.5C 463.018,465.166 466.184,482.166 467.5,499.5 Z"/></g>
<g><path style="opacity:1" fill="#7c84e1" d="M 187.5,367.5 C 188.962,371.817 191.128,375.817 194,379.5C 216.466,400.693 242.633,407.36 272.5,399.5C 277.482,398.598 282.482,398.431 287.5,399C 286.062,398.781 284.729,398.281 283.5,397.5C 283.887,396.28 284.72,395.613 286,395.5C 287.3,396.707 288.8,397.374 290.5,397.5C 290.983,392.677 293.65,389.677 298.5,388.5C 299.386,389.325 299.719,390.325 299.5,391.5C 297.833,391.5 296.167,391.5 294.5,391.5C 294.408,395.071 296.074,396.238 299.5,395C 302.285,391.539 303.952,392.039 304.5,396.5C 301.833,397.5 299.167,398.5 296.5,399.5C 296.5,400.5 296.5,401.5 296.5,402.5C 294.833,402.5 293.167,402.5 291.5,402.5C 291.5,403.5 291.5,404.5 291.5,405.5C 288.084,405.07 284.75,404.57 281.5,404C 277.956,405.539 275.956,408.206 275.5,412C 273.645,412.422 271.811,412.922 270,413.5C 266.423,411.546 262.59,411.046 258.5,412C 258.833,412.333 259.167,412.667 259.5,413C 248.806,413.636 238.139,414.47 227.5,415.5C 203.417,407.916 185.584,392.916 174,370.5C 173.13,371.108 172.63,371.941 172.5,373C 181.522,393.021 196.188,407.354 216.5,416C 259.572,430.029 294.906,419.196 322.5,383.5C 325.247,383.813 327.914,383.48 330.5,382.5C 329.311,381.571 327.978,381.238 326.5,381.5C 326.167,378.5 327.5,377.167 330.5,377.5C 330.579,376.07 330.246,374.736 329.5,373.5C 331.401,372.769 333.401,372.769 335.5,373.5C 364.312,387.61 393.312,401.444 422.5,415C 437.337,424.483 447.504,437.649 453,454.5C 457.965,469.087 460.465,484.087 460.5,499.5C 319.833,499.5 179.167,499.5 38.5,499.5C 38.6899,478.048 43.5232,457.715 53,438.5C 58.4537,429.379 65.6204,421.879 74.5,416C 106.351,400.907 138.017,385.574 169.5,370C 171.919,368.491 172.919,366.325 172.5,363.5C 174.308,363.509 175.975,363.009 177.5,362C 180.717,359.274 184.05,356.774 187.5,354.5C 188.167,354.833 188.833,355.167 189.5,355.5C 188.335,356.584 187.002,357.417 185.5,358C 184.49,361.493 185.157,364.659 187.5,367.5 Z"/></g>
<g><path style="opacity:1" fill="#7c84e1" d="M 335.5,373.5 C 333.401,372.769 331.401,372.769 329.5,373.5C 330.246,374.736 330.579,376.07 330.5,377.5C 327.5,377.167 326.167,378.5 326.5,381.5C 327.978,381.238 329.311,381.571 330.5,382.5C 327.914,383.48 325.247,383.813 322.5,383.5C 324.636,379.424 325.97,375.09 326.5,370.5C 325.325,370.281 324.325,370.614 323.5,371.5C 321.173,376.825 318.34,381.825 315,386.5C 291.499,413.501 262.332,423.167 227.5,415.5C 238.139,414.47 248.806,413.636 259.5,413C 259.167,412.667 258.833,412.333 258.5,412C 262.59,411.046 266.423,411.546 270,413.5C 271.811,412.922 273.645,412.422 275.5,412C 275.956,408.206 277.956,405.539 281.5,404C 284.75,404.57 288.084,405.07 291.5,405.5C 291.5,404.5 291.5,403.5 291.5,402.5C 293.167,402.5 294.833,402.5 296.5,402.5C 296.5,401.5 296.5,400.5 296.5,399.5C 299.167,398.5 301.833,397.5 304.5,396.5C 303.952,392.039 302.285,391.539 299.5,395C 296.074,396.238 294.408,395.071 294.5,391.5C 296.167,391.5 297.833,391.5 299.5,391.5C 299.719,390.325 299.386,389.325 298.5,388.5C 293.65,389.677 290.983,392.677 290.5,397.5C 288.8,397.374 287.3,396.707 286,395.5C 284.72,395.613 283.887,396.28 283.5,397.5C 284.729,398.281 286.062,398.781 287.5,399C 282.482,398.431 277.482,398.598 272.5,399.5C 283.015,395.573 292.682,390.073 301.5,383C 305.993,378.496 309.327,373.33 311.5,367.5C 313.843,364.659 314.51,361.493 313.5,358C 308.368,356.137 308.368,355.137 313.5,355C 317.142,358.487 321.142,361.487 325.5,364C 327.39,368.724 330.723,371.891 335.5,373.5 Z"/></g>

</svg>
